<svg width="30" height="34" viewBox="0 0 30 34" fill="none" xmlns="http://www.w3.org/2000/svg">
<g clip-path="url(#clip0_17_91)">
<path d="M6.42857 0C2.87946 0 0 2.85547 0 6.375V27.625C0 31.1445 2.87946 34 6.42857 34H25.7143H27.8571C29.0424 34 30 33.0504 30 31.875C30 30.6996 29.0424 29.75 27.8571 29.75V25.5C29.0424 25.5 30 24.5504 30 23.375V2.125C30 0.949609 29.0424 0 27.8571 0H25.7143H6.42857ZM6.42857 25.5H23.5714V29.75H6.42857C5.2433 29.75 4.28571 28.8004 4.28571 27.625C4.28571 26.4496 5.2433 25.5 6.42857 25.5ZM8.57143 9.5625C8.57143 8.97812 9.05357 8.5 9.64286 8.5H22.5C23.0893 8.5 23.5714 8.97812 23.5714 9.5625C23.5714 10.1469 23.0893 10.625 22.5 10.625H9.64286C9.05357 10.625 8.57143 10.1469 8.57143 9.5625ZM9.64286 12.75H22.5C23.0893 12.75 23.5714 13.2281 23.5714 13.8125C23.5714 14.3969 23.0893 14.875 22.5 14.875H9.64286C9.05357 14.875 8.57143 14.3969 8.57143 13.8125C8.57143 13.2281 9.05357 12.75 9.64286 12.75Z" fill="white"/>
</g>
<defs>
<clipPath id="clip0_17_91">
<rect width="30" height="34" fill="white"/>
</clipPath>
</defs>
</svg>
