<svg width="512" height="448" viewBox="0 0 512 448" fill="none" xmlns="http://www.w3.org/2000/svg">
<path d="M0 64C0 28.7 28.7 0 64 0H448C483.3 0 512 28.7 512 64V384C512 419.3 483.3 448 448 448H64C28.7 448 0 419.3 0 384V64ZM48 336V368C48 376.8 55.2 384 64 384H96C104.8 384 112 376.8 112 368V336C112 327.2 104.8 320 96 320H64C55.2 320 48 327.2 48 336ZM416 320C407.2 320 400 327.2 400 336V368C400 376.8 407.2 384 416 384H448C456.8 384 464 376.8 464 368V336C464 327.2 456.8 320 448 320H416ZM48 208V240C48 248.8 55.2 256 64 256H96C104.8 256 112 248.8 112 240V208C112 199.2 104.8 192 96 192H64C55.2 192 48 199.2 48 208ZM416 192C407.2 192 400 199.2 400 208V240C400 248.8 407.2 256 416 256H448C456.8 256 464 248.8 464 240V208C464 199.2 456.8 192 448 192H416ZM48 80V112C48 120.8 55.2 128 64 128H96C104.8 128 112 120.8 112 112V80C112 71.2 104.8 64 96 64H64C55.2 64 48 71.2 48 80ZM416 64C407.2 64 400 71.2 400 80V112C400 120.8 407.2 128 416 128H448C456.8 128 464 120.8 464 112V80C464 71.2 456.8 64 448 64H416ZM160 96V160C160 177.7 174.3 192 192 192H320C337.7 192 352 177.7 352 160V96C352 78.3 337.7 64 320 64H192C174.3 64 160 78.3 160 96ZM192 256C174.3 256 160 270.3 160 288V352C160 369.7 174.3 384 192 384H320C337.7 384 352 369.7 352 352V288C352 270.3 337.7 256 320 256H192Z" fill="white"/>
</svg>

