<svg width="352" height="512" viewBox="0 0 352 512" fill="none" xmlns="http://www.w3.org/2000/svg">
<path d="M176 0C123 0 80 43 80 96V256C80 309 123 352 176 352C229 352 272 309 272 256V96C272 43 229 0 176 0ZM48 216C48 202.7 37.3 192 24 192C10.7 192 0 202.7 0 216V256C0 345.1 66.2 418.7 152 430.4V464H104C90.7 464 80 474.7 80 488C80 501.3 90.7 512 104 512H176H248C261.3 512 272 501.3 272 488C272 474.7 261.3 464 248 464H200V430.4C285.8 418.7 352 345.1 352 256V216C352 202.7 341.3 192 328 192C314.7 192 304 202.7 304 216V256C304 326.7 246.7 384 176 384C105.3 384 48 326.7 48 256V216Z" fill="white"/>
</svg>

