<svg width="32" height="32" viewBox="0 0 32 32" fill="none" xmlns="http://www.w3.org/2000/svg">
<path d="M4 4C4 2.89375 3.10625 2 2 2C0.89375 2 0 2.89375 0 4V25C0 27.7625 2.2375 30 5 30H30C31.1063 30 32 29.1063 32 28C32 26.8937 31.1063 26 30 26H5C4.45 26 4 25.55 4 25V4ZM29.4125 9.4125C30.1938 8.63125 30.1938 7.3625 29.4125 6.58125C28.6313 5.8 27.3625 5.8 26.5812 6.58125L20 13.1687L16.4125 9.58125C15.6313 8.8 14.3625 8.8 13.5813 9.58125L6.58125 16.5812C5.8 17.3625 5.8 18.6313 6.58125 19.4125C7.3625 20.1938 8.63125 20.1938 9.4125 19.4125L15 13.8313L18.5875 17.4188C19.3687 18.2 20.6375 18.2 21.4188 17.4188L29.4188 9.41875L29.4125 9.4125Z" fill="white"/>
</svg>
